<svg xmlns="http://www.w3.org/2000/svg" viewBox="0 0 140 120" role="img"><title>Biene</title><style>.fl{animation:f .16s steps(1) infinite}@keyframes f{0%{opacity:1}50%{opacity:0}}@media (prefers-reduced-motion:reduce){.fl{animation:none}}</style><circle class="fl" cx="95" cy="25" r="4.3" fill="#B9C6CE"/><circle class="fl" cx="85" cy="25" r="4.3" fill="#B9C6CE"/><circle class="fl" cx="55" cy="25" r="4.3" fill="#B9C6CE"/><circle class="fl" cx="45" cy="25" r="4.3" fill="#B9C6CE"/><circle cx="105" cy="35" r="4.3" fill="#B9C6CE"/><circle cx="95" cy="35" r="4.3" fill="#B9C6CE"/><circle cx="85" cy="35" r="4.3" fill="#B9C6CE"/><circle cx="75" cy="35" r="4.3" fill="#B9C6CE"/><circle cx="65" cy="35" r="4.3" fill="#B9C6CE"/><circle cx="55" cy="35" r="4.3" fill="#B9C6CE"/><circle cx="45" cy="35" r="4.3" fill="#B9C6CE"/><circle cx="35" cy="35" r="4.3" fill="#B9C6CE"/><circle cx="95" cy="45" r="4.3" fill="#B9C6CE"/><circle cx="85" cy="45" r="4.3" fill="#B9C6CE"/><circle cx="75" cy="45" r="4.3" fill="#B9C6CE"/><circle cx="65" cy="45" r="4.3" fill="#B9C6CE"/><circle cx="55" cy="45" r="4.3" fill="#B9C6CE"/><circle cx="45" cy="45" r="4.3" fill="#B9C6CE"/><circle cx="115" cy="55" r="4.3" fill="#F4C03F"/><circle cx="105" cy="55" r="4.3" fill="#F4C03F"/><circle cx="95" cy="55" r="4.3" fill="#191615"/><circle cx="85" cy="55" r="4.3" fill="#F4C03F"/><circle cx="75" cy="55" r="4.3" fill="#F4C03F"/><circle cx="65" cy="55" r="4.3" fill="#191615"/><circle cx="55" cy="55" r="4.3" fill="#F4C03F"/><circle cx="45" cy="55" r="4.3" fill="#F4C03F"/><circle cx="35" cy="55" r="4.3" fill="#191615"/><circle cx="25" cy="55" r="4.3" fill="#191615"/><circle cx="125" cy="65" r="4.3" fill="#F4C03F"/><circle cx="115" cy="65" r="4.3" fill="#F4C03F"/><circle cx="105" cy="65" r="4.3" fill="#F4C03F"/><circle cx="95" cy="65" r="4.3" fill="#191615"/><circle cx="85" cy="65" r="4.3" fill="#F4C03F"/><circle cx="75" cy="65" r="4.3" fill="#F4C03F"/><circle cx="65" cy="65" r="4.3" fill="#191615"/><circle cx="55" cy="65" r="4.3" fill="#F4C03F"/><circle cx="45" cy="65" r="4.3" fill="#F4C03F"/><circle cx="35" cy="65" r="4.3" fill="#191615"/><circle cx="25" cy="65" r="4.3" fill="#191615"/><circle cx="15" cy="65" r="4.3" fill="#191615"/><circle cx="135" cy="75" r="4.3" fill="#191615"/><circle cx="125" cy="75" r="4.3" fill="#F4C03F"/><circle cx="115" cy="75" r="4.3" fill="#F4C03F"/><circle cx="105" cy="75" r="4.3" fill="#F4C03F"/><circle cx="95" cy="75" r="4.3" fill="#191615"/><circle cx="85" cy="75" r="4.3" fill="#F4C03F"/><circle cx="75" cy="75" r="4.3" fill="#F4C03F"/><circle cx="65" cy="75" r="4.3" fill="#191615"/><circle cx="55" cy="75" r="4.3" fill="#F4C03F"/><circle cx="45" cy="75" r="4.3" fill="#F4C03F"/><circle cx="35" cy="75" r="4.3" fill="#191615"/><circle cx="25" cy="75" r="4.3" fill="#191615"/><circle cx="15" cy="75" r="4.3" fill="#191615"/><circle cx="125" cy="85" r="4.3" fill="#F4C03F"/><circle cx="115" cy="85" r="4.3" fill="#F4C03F"/><circle cx="105" cy="85" r="4.3" fill="#F4C03F"/><circle cx="95" cy="85" r="4.3" fill="#191615"/><circle cx="85" cy="85" r="4.3" fill="#F4C03F"/><circle cx="75" cy="85" r="4.3" fill="#F4C03F"/><circle cx="65" cy="85" r="4.3" fill="#191615"/><circle cx="55" cy="85" r="4.3" fill="#F4C03F"/><circle cx="45" cy="85" r="4.3" fill="#F4C03F"/><circle cx="35" cy="85" r="4.3" fill="#191615"/><circle cx="25" cy="85" r="4.3" fill="#191615"/><circle cx="15" cy="85" r="4.3" fill="#191615"/><circle cx="115" cy="95" r="4.3" fill="#F4C03F"/><circle cx="105" cy="95" r="4.3" fill="#F4C03F"/><circle cx="95" cy="95" r="4.3" fill="#191615"/><circle cx="85" cy="95" r="4.3" fill="#F4C03F"/><circle cx="75" cy="95" r="4.3" fill="#F4C03F"/><circle cx="65" cy="95" r="4.3" fill="#191615"/><circle cx="55" cy="95" r="4.3" fill="#F4C03F"/><circle cx="45" cy="95" r="4.3" fill="#F4C03F"/><circle cx="35" cy="95" r="4.3" fill="#191615"/><circle cx="25" cy="95" r="4.3" fill="#191615"/></svg>
