<svg xmlns="http://www.w3.org/2000/svg" xmlns:xlink="http://www.w3.org/1999/xlink" viewBox="-50 -50 1167 1167" width="512" height="512">
<g style="" id="aig6A7BGDccVwKG85lNk8">
<g style=""><path d="M-939.39173 -41.95845Q-922.93516 -41.95845 -907.15621 -35.27902Q-891.37726 -28.59959 -881.21291 -13.98228Q-871.04855 0.63503 -871.04855 24.44866L-871.04855 121.63924L-926.80729 121.63924L-926.80729 33.74178Q-926.80729 15.73635 -934.74517 6.83045Q-942.68304 -2.07546 -956.42912 -2.07546Q-965.52864 -2.07546 -973.85372 2.76470Q-982.17881 7.60487 -987.40620 16.22037Q-992.63358 24.83587 -992.63358 36.06506L-992.63358 121.63924L-1048.39232 121.63924L-1048.39232 -144.76362L-992.63358 -144.76362L-992.63358 -13.30465Q-990.50390 -19.69368 -983.05004 -26.37311Q-975.59619 -33.05254 -964.17339 -37.50550Q-952.75059 -41.95845 -939.39173 -41.95845Z" fill="rgb(25,22,21)" fill-opacity="1.00" transform="matrix(1 0 0 1 1849.14245 523.982344) translate(0 0)"></path><path d="M-703.30848 121.63924L-703.30848 95.11511Q-704.85733 99.37446 -711.92398 106.82832Q-718.99062 114.28218 -730.80063 120.28399Q-742.61064 126.28580 -758.48640 126.28580Q-781.52560 126.28580 -798.95020 115.05661Q-816.37481 103.82742 -826.24875 84.85396Q-836.12269 65.88050 -836.12269 42.26048Q-836.12269 18.64046 -826.24875 -0.33300Q-816.37481 -19.30646 -798.95020 -30.63246Q-781.52560 -41.95845 -758.48640 -41.95845Q-743.19146 -41.95845 -731.76867 -37.02148Q-720.34587 -32.08451 -713.27923 -25.40507Q-706.21258 -18.72564 -703.69569 -13.30465L-703.69569 -37.31189L-648.51777 -37.31189L-648.51777 121.63924ZM-781.52560 42.26048Q-781.52560 54.07049 -776.20141 63.17000Q-770.87723 72.26952 -761.97132 77.40010Q-753.06541 82.53068 -742.41704 82.53068Q-731.18785 82.53068 -722.57235 77.30329Q-713.95685 72.07591 -709.01988 62.97640Q-704.08291 53.87688 -704.08291 42.26048Q-704.08291 30.64407 -709.01988 21.54456Q-713.95685 12.44504 -722.57235 7.12086Q-731.18785 1.79667 -742.41704 1.79667Q-753.06541 1.79667 -761.97132 7.02405Q-770.87723 12.25143 -776.20141 21.35095Q-781.52560 30.45047 -781.52560 42.26048Z" fill="rgb(25,22,21)" fill-opacity="1.00" transform="matrix(1 0 0 1 1849.14245 523.982344) translate(0 0)"></path><path d="M-547.80792 202.17963L-602.79223 202.17963L-602.79223 -37.31189L-547.22710 -37.31189L-547.22710 -13.30465Q-544.51660 -18.72564 -536.86914 -25.40507Q-529.22167 -32.08451 -517.12125 -37.02148Q-505.02083 -41.95845 -489.53229 -41.95845Q-466.49309 -41.95845 -449.84291 -30.63246Q-433.19273 -19.30646 -424.09322 -0.33300Q-414.99370 18.64046 -414.99370 42.26048Q-414.99370 65.88050 -424.57724 84.85396Q-434.16077 103.82742 -451.39177 115.05661Q-468.62277 126.28580 -491.66197 126.28580Q-508.50575 126.28580 -520.50937 120.28399Q-532.51299 114.28218 -539.28922 106.82832Q-546.06546 99.37446 -547.80792 95.11511ZM-469.59080 42.26048Q-469.59080 30.45047 -474.72138 21.35095Q-479.85196 12.25143 -488.46746 7.02405Q-497.08296 1.79667 -507.73133 1.79667Q-518.96052 1.79667 -527.86642 7.12086Q-536.77233 12.44504 -541.99972 21.54456Q-547.22710 30.64407 -547.22710 42.26048Q-547.22710 53.87688 -541.99972 62.97640Q-536.77233 72.07591 -527.86642 77.30329Q-518.96052 82.53068 -507.73133 82.53068Q-497.08296 82.53068 -488.46746 77.40010Q-479.85196 72.26952 -474.72138 63.17000Q-469.59080 54.07049 -469.59080 42.26048Z" fill="rgb(25,22,21)" fill-opacity="1.00" transform="matrix(1 0 0 1 1849.14245 523.982344) translate(0 0)"></path><path d="M-322.37370 202.17963L-377.35801 202.17963L-377.35801 -37.31189L-321.79288 -37.31189L-321.79288 -13.30465Q-319.08239 -18.72564 -311.43492 -25.40507Q-303.78745 -32.08451 -291.68703 -37.02148Q-279.58661 -41.95845 -264.09807 -41.95845Q-241.05887 -41.95845 -224.40869 -30.63246Q-207.75852 -19.30646 -198.65900 -0.33300Q-189.55948 18.64046 -189.55948 42.26048Q-189.55948 65.88050 -199.14302 84.85396Q-208.72655 103.82742 -225.95755 115.05661Q-243.18855 126.28580 -266.22775 126.28580Q-283.07153 126.28580 -295.07515 120.28399Q-307.07877 114.28218 -313.85500 106.82832Q-320.63124 99.37446 -322.37370 95.11511ZM-244.15658 42.26048Q-244.15658 30.45047 -249.28716 21.35095Q-254.41774 12.25143 -263.03324 7.02405Q-271.64874 1.79667 -282.29711 1.79667Q-293.52630 1.79667 -302.43221 7.12086Q-311.33812 12.44504 -316.56550 21.54456Q-321.79288 30.64407 -321.79288 42.26048Q-321.79288 53.87688 -316.56550 62.97640Q-311.33812 72.07591 -302.43221 77.30329Q-293.52630 82.53068 -282.29711 82.53068Q-271.64874 82.53068 -263.03324 77.40010Q-254.41774 72.26952 -249.28716 63.17000Q-244.15658 54.07049 -244.15658 42.26048Z" fill="rgb(25,22,21)" fill-opacity="1.00" transform="matrix(1 0 0 1 1849.14245 523.982344) translate(0 0)"></path><path d="M-73.31946 73.23755L-28.98352 -37.31189L25.61358 -37.31189L-83.38701 202.17963L-138.95214 202.17963L-102.36047 121.63924L-168.57397 -37.31189L-113.20245 -37.31189Z" fill="rgb(25,22,21)" fill-opacity="1.00" transform="matrix(1 0 0 1 1849.14245 523.982344) translate(0 0)"></path><path d="M51.83374 121.63924L51.83374 -144.76362L107.39887 -144.76362L107.39887 -13.30465Q109.14133 -18.72564 116.49839 -25.40507Q123.85544 -32.08451 135.95586 -37.02148Q148.05628 -41.95845 163.35122 -41.95845Q186.39042 -41.95845 203.52461 -30.63246Q220.65881 -19.30646 230.04873 -0.33300Q239.43866 18.64046 239.43866 42.26048Q239.43866 65.88050 230.04873 84.85396Q220.65881 103.82742 203.52461 115.05661Q186.39042 126.28580 163.35122 126.28580Q150.18596 126.28580 138.56955 121.44563Q126.95315 116.60546 118.72486 109.44201Q110.49658 102.27856 106.81805 95.11511L106.81805 121.63924ZM184.84156 42.26048Q184.84156 30.45047 179.80779 21.35095Q174.77401 12.25143 166.06171 7.02405Q157.34941 1.79667 146.70104 1.79667Q135.66545 1.79667 126.75954 7.12086Q117.85363 12.44504 112.62625 21.54456Q107.39887 30.64407 107.39887 42.26048Q107.39887 53.87688 112.62625 62.97640Q117.85363 72.07591 126.75954 77.30329Q135.66545 82.53068 146.70104 82.53068Q157.34941 82.53068 166.06171 77.40010Q174.77401 72.26952 179.80779 63.17000Q184.84156 54.07049 184.84156 42.26048Z" fill="rgb(25,22,21)" fill-opacity="1.00" transform="matrix(1 0 0 1 1849.14245 523.982344) translate(0 0)"></path><path d="M327.51716 37.22670Q327.51716 56.78098 335.16463 68.59099Q342.81209 80.40100 360.43031 80.40100Q378.24213 80.40100 385.79279 68.59099Q393.34345 56.78098 393.34345 37.22670L393.34345 -37.31189L448.13416 -37.31189L448.13416 43.22851Q448.13416 68.39739 437.87300 87.08043Q427.61184 105.76348 408.05756 116.02464Q388.50328 126.28580 360.43031 126.28580Q332.55094 126.28580 312.99666 116.02464Q293.44238 105.76348 283.18122 87.08043Q272.92007 68.39739 272.92007 43.22851L272.92007 -37.31189L327.51716 -37.31189Z" fill="rgb(25,22,21)" fill-opacity="1.00" transform="matrix(1 0 0 1 1849.14245 523.982344) translate(0 0)"></path><path d="M488.47043 -37.31189L643.54942 -37.31189L562.23459 82.72428L637.54761 82.72428L637.54761 121.63924L476.07960 121.63924L557.39442 1.60306L488.47043 1.60306Z" fill="rgb(25,22,21)" fill-opacity="1.00" transform="matrix(1 0 0 1 1849.14245 523.982344) translate(0 0)"></path><path d="M668.77842 -37.31189L823.85741 -37.31189L742.54258 82.72428L817.85560 82.72428L817.85560 121.63924L656.38759 121.63924L737.70242 1.60306L668.77842 1.60306Z" fill="rgb(25,22,21)" fill-opacity="1.00" transform="matrix(1 0 0 1 1849.14245 523.982344) translate(0 0)"></path><path d="M892.84153 126.28580Q878.70824 126.28580 868.83430 116.31505Q858.96036 106.34430 858.96036 92.40462Q858.96036 78.07772 868.83430 68.10698Q878.70824 58.13623 892.84153 58.13623Q906.97483 58.13623 916.94557 68.10698Q926.91632 78.07772 926.91632 92.40462Q926.91632 106.34430 916.94557 116.31505Q906.97483 126.28580 892.84153 126.28580Z" fill="rgb(25,22,21)" fill-opacity="1.00" transform="matrix(1 0 0 1 1849.14245 523.982344) translate(0 0)"></path></g></g>
</svg>